<svg xmlns="http://www.w3.org/2000/svg" width="128" height="128" xml:space="preserve"><path fill="#FFFFFF" d="M56.801 128h-4v-13.156H36.508c-7.473 0-13.552-6.005-13.552-13.386V86.793H11.511L26.83 60.654a38.655 38.655 0 0 1-.027-1.406c0-19.416 12.613-36.371 31.387-42.189a45.488 45.488 0 0 1 10.692-1.943l.24 3.993a41.5 41.5 0 0 0-9.75 1.771c-17.088 5.297-28.569 20.716-28.569 38.369 0 .609.021 1.21.049 1.815l.027.593-12.387 21.136h8.464v18.665c0 5.176 4.285 9.386 9.552 9.386h20.293V128zM103.974 128h-4V88.227l.595-.587c7.688-7.59 11.921-17.673 11.921-28.392 0-14.956-8.353-28.591-21.798-35.583a40.95 40.95 0 0 0-8.443-3.265l1.021-3.867a45.006 45.006 0 0 1 9.269 3.584c14.773 7.683 23.951 22.678 23.951 39.132 0 11.518-4.438 22.364-12.516 30.64V128z"/><g><path fill="#FFFFFF" d="m75.663 126.696-11.422-20.684v-3.765h4v2.733l7.422 13.441 7.418-13.439v-2.733h4v3.765z"/><path fill="#FFFFFF" d="M64.251 104.818v-80.76h4v76.76l14.821-.002V26.721h4v78.095z"/><path fill="#FFFFFF" d="M73.662 15.164h4v84.537h-4zM87.093 11.158l-4-.002.004-7.152A.544.544 0 0 0 83.024 4l-14.712.002h-.001a.618.618 0 0 0-.079.005v7.15h-4v-7.49c0-.914.371-1.788 1.043-2.459.769-.766 1.873-1.206 3.033-1.206h.007L83.024 0c2.274 0 4.063 1.607 4.072 3.659l-.003 7.499z"/></g></svg>